<svg xmlns:xlink="http://www.w3.org/1999/xlink" xmlns="http://www.w3.org/2000/svg" viewBox="0 0 350 358.8374011921871" preserveAspectRatio="xMidYMid meet" class="css-116ckqy" id="bfcccghg" width="350"  height="358.8374011921871" ><defs id="SvgjsDefs1013"></defs><g id="SvgjsG1014" featurekey="symbolFeature-0" transform="matrix(2.728073835372925,0,0,2.728073835372925,38.596191387739054,-20.88067617132348)" fill="#111111"><g xmlns="http://www.w3.org/2000/svg" fill="#111111"><path fill="#111111" d="M69.231,64.095c-2.421,0-4.647-0.932-6.309-2.599c-1.678,1.648-3.953,2.599-6.343,2.599   c-2.426,0-4.718-0.987-6.399-2.677c-1.716,1.653-4.177,2.677-6.669,2.677c-2.388,0-4.664-0.95-6.339-2.599   c-1.661,1.667-3.888,2.599-6.307,2.599c-2.255,0-4.399-0.847-6.041-2.323c-3.125,16.186,9.333,30.56,25.177,30.56   c15.817,0,28.26-14.327,25.19-30.48C73.561,63.282,71.446,64.095,69.231,64.095z"></path><path fill="#111111" d="M56.58,61.556c2.111,0,4.097-1.161,5.313-2.888C62.133,58.33,62.52,58,62.933,58c0.001,0,0.003,0,0.004,0   c0.414,0,0.802,0.334,1.038,0.674c1.216,1.748,3.133,2.816,5.257,2.816c2.066,0,4.003-0.96,5.225-2.619   c-0.456-1.491-1.032-2.972-1.767-4.472C63.127,34.916,60.078,29.174,50.001,7.654C40.756,28.36,36.872,34.93,27.312,54.414   c-0.722,1.469-1.288,2.939-1.74,4.403c1.218,1.713,3.19,2.737,5.294,2.737c2.122,0,4.038-1.003,5.255-2.751   c0.237-0.341,0.599-0.571,1.043-0.545c0.412,0,0.799,0.201,1.037,0.539c1.219,1.726,3.204,2.758,5.311,2.758   c2.216,0,4.482-1.124,5.64-2.797c0.017-0.024,0.038-0.044,0.057-0.066c0.029-0.035,0.056-0.073,0.09-0.104   c0.037-0.038,0.076-0.069,0.117-0.102c0.019-0.015,0.036-0.033,0.057-0.049c0.005-0.003,0.012-0.005,0.017-0.008   c0.044-0.031,0.093-0.055,0.141-0.08c0.029-0.014,0.055-0.031,0.083-0.042c0.042-0.018,0.086-0.028,0.129-0.04   c0.036-0.011,0.072-0.025,0.108-0.032c0.042-0.008,0.083-0.009,0.125-0.013c0.04-0.004,0.078-0.01,0.116-0.01   c0.044,0,0.089,0.006,0.134,0.013c0.036,0.002,0.073,0.003,0.108,0.01c0.042,0.008,0.084,0.022,0.125,0.036   c0.037,0.011,0.075,0.02,0.112,0.034c0.035,0.013,0.068,0.034,0.103,0.053c0.041,0.02,0.083,0.041,0.122,0.066   c0.007,0.005,0.015,0.008,0.022,0.013c0.026,0.018,0.047,0.042,0.072,0.061c0.034,0.028,0.067,0.054,0.099,0.085   c0.036,0.035,0.066,0.076,0.098,0.113c0.017,0.022,0.036,0.04,0.051,0.062C52.453,60.51,54.449,61.556,56.58,61.556z"></path></g></g><g id="SvgjsG1015" featurekey="fiAKjI-0" transform="matrix(3.2870020866394043,0,0,3.2870020866394043,-5.653643792587092,233.7103726390919)" fill="#111111"><path d="M3.66 13.48 l0 6.52 l-1.94 0 l0 -14.36 l9.94 0 l0 1.72 l-8 0 l0 4.4 l7.04 0 l0 1.72 l-7.04 0 z M15.52 13.92 l0 6.08 l-1.76 0 l0 -10.46 l1.66 0 l0 1.74 l0.04 0 c0.7 -1.22 1.62 -2.04 2.94 -2.04 c0.22 0 0.32 0.02 0.46 0.06 l0 1.82 l-0.66 0 c-1.64 0 -2.68 1.28 -2.68 2.8 z M27.300000000000004 16.72 l1.76 0 c-0.06 0.5 -0.54 1.98 -1.86 2.86 c-0.48 0.32 -1.16 0.72 -2.84 0.72 c-2.94 0 -4.68 -2.22 -4.68 -5.24 c0 -3.24 1.56 -5.82 5.02 -5.82 c3.02 0 4.5 2.4 4.5 6.1 l-7.64 0 c0 2.18 1.02 3.44 3.04 3.44 c1.66 0 2.64 -1.28 2.7 -2.06 z M21.560000000000002 13.940000000000001 l5.82 0 c-0.1 -1.62 -0.78 -3.12 -2.92 -3.12 c-1.62 0 -2.9 1.5 -2.9 3.12 z M38.42 16.72 l1.76 0 c-0.06 0.5 -0.54 1.98 -1.86 2.86 c-0.48 0.32 -1.16 0.72 -2.84 0.72 c-2.94 0 -4.68 -2.22 -4.68 -5.24 c0 -3.24 1.56 -5.82 5.02 -5.82 c3.02 0 4.5 2.4 4.5 6.1 l-7.64 0 c0 2.18 1.02 3.44 3.04 3.44 c1.66 0 2.64 -1.28 2.7 -2.06 z M32.68000000000001 13.940000000000001 l5.82 0 c-0.1 -1.62 -0.78 -3.12 -2.92 -3.12 c-1.62 0 -2.9 1.5 -2.9 3.12 z M53.120000000000005 9.84 l-1.82 0 c-0.1 -2.22 -1.94 -2.92 -3.56 -2.92 c-1.22 0 -3.28 0.34 -3.28 2.52 c0 1.22 0.86 1.62 1.7 1.82 l4.1 0.94 c1.86 0.44 3.26 1.56 3.26 3.84 c0 3.4 -3.16 4.34 -5.62 4.34 c-2.66 0 -3.7 -0.8 -4.34 -1.38 c-1.22 -1.1 -1.46 -2.3 -1.46 -3.64 l1.82 0 c0 2.6 2.12 3.36 3.96 3.36 c1.4 0 3.76 -0.36 3.76 -2.42 c0 -1.5 -0.7 -1.98 -3.06 -2.54 l-2.94 -0.68 c-0.94 -0.22 -3.06 -0.88 -3.06 -3.38 c0 -2.24 1.46 -4.44 4.94 -4.44 c5.02 0 5.52 3 5.6 4.58 z M57.30000000000001 15.26 c0 2.78 1.74 3.52 2.86 3.52 c1.92 0 2.82 -1.74 2.82 -4.04 c0 -1.34 -0.14 -3.92 -2.86 -3.92 c-2.54 0 -2.82 2.74 -2.82 4.44 z M55.620000000000005 24.14 l0 -14.6 l1.66 0 l0 1.48 l0.04 0 c0.42 -0.6 1.22 -1.78 3.12 -1.78 c2.78 0 4.36 2.28 4.36 5.22 c0 2.5 -1.04 5.84 -4.6 5.84 c-1.4 0 -2.32 -0.66 -2.78 -1.4 l-0.04 0 l0 5.24 l-1.76 0 z M68.88000000000001 13.92 l0 6.08 l-1.76 0 l0 -10.46 l1.66 0 l0 1.74 l0.04 0 c0.7 -1.22 1.62 -2.04 2.94 -2.04 c0.22 0 0.32 0.02 0.46 0.06 l0 1.82 l-0.66 0 c-1.64 0 -2.68 1.28 -2.68 2.8 z M75.34 9.54 l0 10.46 l-1.76 0 l0 -10.46 l1.76 0 z M75.34 7.640000000000001 l-1.76 0 l0 -2 l1.76 0 l0 2 z M86.5 12.879999999999999 l0 7.12 l-1.76 0 l0 -6.44 c0 -1.82 -0.52 -2.74 -2.24 -2.74 c-1 0 -2.76 0.64 -2.76 3.48 l0 5.7 l-1.76 0 l0 -10.46 l1.66 0 l0 1.48 l0.04 0 c0.38 -0.56 1.36 -1.78 3.16 -1.78 c1.62 0 3.66 0.66 3.66 3.64 z M90.42000000000002 14.74 c0 2.3 0.9 4.04 2.82 4.04 c1.12 0 2.86 -0.74 2.86 -3.52 c0 -1.7 -0.28 -4.44 -2.82 -4.44 c-2.72 0 -2.86 2.58 -2.86 3.92 z M97.78000000000002 9.54 l0 9.6 c0 1.5 -0.02 5.26 -4.86 5.26 c-1.24 0 -3.66 -0.34 -4 -3.12 l1.76 0 c0.32 1.66 1.94 1.66 2.36 1.66 c3.04 0 2.98 -2.44 2.98 -3.68 l0 -0.44 l-0.04 0 l0 0.08 c-0.46 0.74 -1.38 1.4 -2.78 1.4 c-3.56 0 -4.6 -3.34 -4.6 -5.84 c0 -2.94 1.58 -5.22 4.36 -5.22 c1.9 0 2.7 1.18 3.12 1.78 l0.04 0 l0 -1.48 l1.66 0 z M107.86000000000001 12.52 l-1.7 0 c-0.02 -0.66 -0.26 -1.76 -2.48 -1.76 c-0.54 0 -2.08 0.18 -2.08 1.48 c0 0.86 0.54 1.06 1.9 1.4 l1.76 0.44 c2.18 0.54 2.94 1.34 2.94 2.76 c0 2.16 -1.78 3.46 -4.14 3.46 c-4.14 0 -4.44 -2.4 -4.5 -3.66 l1.7 0 c0.06 0.82 0.3 2.14 2.78 2.14 c1.26 0 2.4 -0.5 2.4 -1.66 c0 -0.84 -0.58 -1.12 -2.08 -1.5 l-2.04 -0.5 c-1.46 -0.36 -2.42 -1.1 -2.42 -2.54 c0 -2.3 1.9 -3.34 3.96 -3.34 c3.74 0 4 2.76 4 3.28 z" fill="#111111"></path></g><g id="SvgjsG1016" featurekey="sloganFeature-0" transform="matrix(2.304060697555542,0,0,2.304060697555542,49.03701536234135,311.88064077633504)" fill="#111111"><path d="M3.66 7.300000000000001 l0 4.98 l3.86 0 c1.74 0 2.92 -0.64 2.92 -2.58 c0 -1.82 -1.24 -2.4 -2.84 -2.4 l-3.94 0 z M3.66 13.940000000000001 l0 6.06 l-1.94 0 l0 -14.36 l6.46 0 c2.66 0 4.26 1.72 4.26 4.04 c0 2 -1.14 4.26 -4.26 4.26 l-4.52 0 z M19.538999999999998 13.84 l0 6.16 l-1.94 0 l0 -14.36 l6.64 0 c2.36 0 4.72 0.82 4.72 3.86 c0 2.12 -1.08 2.9 -2 3.44 c0.82 0.34 1.64 0.7 1.72 2.7 l0.12 2.6 c0.02 0.8 0.12 1.1 0.72 1.44 l0 0.32 l-2.38 0 c-0.28 -0.88 -0.34 -3.06 -0.34 -3.6 c0 -1.18 -0.24 -2.56 -2.56 -2.56 l-4.7 0 z M19.538999999999998 7.300000000000001 l0 4.88 l4.5 0 c1.42 0 2.92 -0.36 2.92 -2.48 c0 -2.22 -1.62 -2.4 -2.58 -2.4 l-4.84 0 z M45.558 12.82 c0 -3.38 -1.88 -5.84 -5 -5.84 s-5 2.46 -5 5.84 s1.88 5.84 5 5.84 s5 -2.46 5 -5.84 z M47.558 12.82 c0 3.1 -1.64 7.56 -7 7.56 s-7 -4.46 -7 -7.56 s1.64 -7.56 7 -7.56 s7 4.46 7 7.56 z M51.17700000000001 15.379999999999999 l1.82 0 l0 1 c0 1.72 0.82 2.34 2.16 2.34 c1.8 0 2.3 -1.08 2.3 -2.48 l0 -10.6 l1.94 0 l0 10.48 c0 3.36 -2.2 4.26 -4.14 4.26 c-3.34 0 -4.08 -2.24 -4.08 -3.58 l0 -1.42 z M75.656 18.28 l0 1.72 l-10.6 0 l0 -14.36 l10.46 0 l0 1.72 l-8.52 0 l0 4.4 l7.86 0 l0 1.72 l-7.86 0 l0 4.8 l8.66 0 z M92.655 9.96 l-1.88 0 c-0.54 -2.52 -2.64 -2.98 -4.02 -2.98 c-2.6 0 -4.7 1.92 -4.7 5.7 c0 3.38 1.2 5.98 4.76 5.98 c1.26 0 3.44 -0.6 4.1 -3.94 l1.88 0 c-0.8 5.42 -5.2 5.66 -6.28 5.66 c-3.26 0 -6.46 -2.12 -6.46 -7.64 c0 -4.42 2.52 -7.48 6.7 -7.48 c3.7 0 5.62 2.3 5.9 4.7 z M96.394 7.359999999999999 l0 -1.72 l11.66 0 l0 1.72 l-4.86 0 l0 12.64 l-1.94 0 l0 -12.64 l-4.86 0 z" fill="#111111"></path></g></svg>